<svg width="1457" height="473" viewBox="0 0 1457 473" fill="none" xmlns="http://www.w3.org/2000/svg">
<path fill-rule="evenodd" clip-rule="evenodd" d="M41.7232 58.1789C42.7507 55.7086 46.2501 55.7086 47.2776 58.1789L52.0488 69.6503L64.4332 70.6432C67.1001 70.857 68.1814 74.1851 66.1496 75.9257L56.714 84.0083L59.5967 96.0933C60.2175 98.6957 57.3864 100.753 55.1031 99.3581L44.5004 92.8819L33.8976 99.3581C31.6144 100.753 28.7833 98.6957 29.4041 96.0933L32.2868 84.0083L22.8512 75.9257C20.8193 74.1851 21.9007 70.857 24.5676 70.6432L36.952 69.6503L41.7232 58.1789Z" fill="#EBFAFF"/>
<path fill-rule="evenodd" clip-rule="evenodd" d="M147.188 64.571C147.188 58.8756 151.805 54.2585 157.5 54.2585C163.196 54.2585 167.813 58.8756 167.813 64.571C167.813 70.2665 163.196 74.8835 157.5 74.8835C151.805 74.8835 147.188 70.2665 147.188 64.571Z" fill="#EBFAFF"/>
<path fill-rule="evenodd" clip-rule="evenodd" d="M138.597 96.8958C138.774 86.6067 147.169 78.321 157.5 78.321C167.831 78.321 176.227 86.6071 176.404 96.8965C176.415 97.5789 176.022 98.2035 175.402 98.4882C169.95 100.99 163.886 102.384 157.501 102.384C151.115 102.384 145.051 100.989 139.599 98.4875C138.978 98.2028 138.585 97.5781 138.597 96.8958Z" fill="#EBFAFF"/>
<path fill-rule="evenodd" clip-rule="evenodd" d="M287.683 94.5852C292.195 90.5107 295.011 84.7311 295.011 78.321C295.011 65.9809 284.573 55.9773 271.696 55.9773C258.819 55.9773 248.381 65.9809 248.381 78.321C248.381 84.7311 251.197 90.5107 255.709 94.5852C259.883 98.3547 265.508 100.665 271.696 100.665C277.884 100.665 283.509 98.3547 287.683 94.5852ZM257.695 91.6409C260.982 87.7118 266.033 85.196 271.696 85.196C277.36 85.196 282.41 87.7118 285.697 91.6409C282.123 95.091 277.17 97.2273 271.696 97.2273C266.222 97.2273 261.269 95.091 257.695 91.6409ZM280.663 71.446C280.663 76.1922 276.649 80.0398 271.696 80.0398C266.744 80.0398 262.729 76.1922 262.729 71.446C262.729 66.6998 266.744 62.8523 271.696 62.8523C276.649 62.8523 280.663 66.6998 280.663 71.446Z" fill="#EBFAFF"/>
<path d="M385.891 85.196C389.688 85.196 392.766 82.118 392.766 78.321C392.766 74.5241 389.688 71.446 385.891 71.446C382.094 71.446 379.016 74.5241 379.016 78.321C379.016 82.118 382.094 85.196 385.891 85.196Z" fill="#EBFAFF"/>
<path fill-rule="evenodd" clip-rule="evenodd" d="M361.424 77.0531C364.832 66.8071 374.497 59.4148 385.892 59.4148C397.283 59.4148 406.944 66.8002 410.356 77.0388C410.632 77.8662 410.632 78.7614 410.357 79.589C406.948 89.835 397.284 97.2273 385.888 97.2273C374.498 97.2273 364.837 89.8419 361.425 79.6033C361.149 78.7759 361.149 77.8806 361.424 77.0531ZM397.922 78.321C397.922 84.9657 392.536 90.3523 385.891 90.3523C379.247 90.3523 373.86 84.9657 373.86 78.321C373.86 71.6764 379.247 66.2898 385.891 66.2898C392.536 66.2898 397.922 71.6764 397.922 78.321Z" fill="#EBFAFF"/>
<path d="M479.482 56.4807C478.81 55.8095 477.722 55.8095 477.051 56.4807C476.38 57.1519 476.38 58.2402 477.051 58.9114L518.301 100.161C518.972 100.833 520.06 100.833 520.732 100.161C521.403 99.4902 521.403 98.4019 520.732 97.7307L479.482 56.4807Z" fill="#EBFAFF"/>
<path d="M523.357 79.589C522.11 83.3368 520.026 86.7028 517.327 89.4648L510.226 82.3641C510.677 81.1005 510.922 79.7394 510.922 78.321C510.922 71.6764 505.536 66.2898 498.891 66.2898C497.473 66.2898 496.112 66.5352 494.848 66.986L489.172 61.31C492.172 60.0881 495.453 59.4148 498.892 59.4148C510.283 59.4148 519.944 66.8002 523.356 77.0388C523.632 77.8662 523.632 78.7614 523.357 79.589Z" fill="#EBFAFF"/>
<path d="M507.485 78.321C507.485 78.7339 507.456 79.14 507.4 79.5373L497.675 69.8127C498.072 69.7564 498.478 69.7273 498.891 69.7273C503.637 69.7273 507.485 73.5748 507.485 78.321Z" fill="#EBFAFF"/>
<path d="M500.108 86.8294L490.383 77.1047C490.327 77.5021 490.297 77.9082 490.297 78.321C490.297 83.0672 494.145 86.9148 498.891 86.9148C499.304 86.9148 499.71 86.8857 500.108 86.8294Z" fill="#EBFAFF"/>
<path d="M486.86 78.321C486.86 76.9027 487.105 75.5416 487.556 74.278L480.455 67.1765C477.755 69.9386 475.671 73.3049 474.424 77.0531C474.149 77.8806 474.149 78.7759 474.425 79.6033C477.837 89.8419 487.498 97.2273 498.888 97.2273C502.328 97.2273 505.61 96.5538 508.61 95.3316L502.934 89.6561C501.671 90.1068 500.31 90.3523 498.891 90.3523C492.247 90.3523 486.86 84.9657 486.86 78.321Z" fill="#EBFAFF"/>
<path fill-rule="evenodd" clip-rule="evenodd" d="M598.875 56.7276C603.146 56.232 607.489 55.9773 611.891 55.9773C616.293 55.9773 620.637 56.232 624.907 56.7276C628.339 57.1258 630.797 60.073 630.797 63.4412V98.946C630.797 99.5417 630.489 100.095 629.982 100.408C629.475 100.721 628.843 100.75 628.31 100.483L611.891 92.2739L595.472 100.483C594.939 100.75 594.307 100.721 593.8 100.408C593.293 100.095 592.985 99.5417 592.985 98.946V63.4412C592.985 60.073 595.443 57.1258 598.875 56.7276Z" fill="#EBFAFF"/>
<path d="M737.709 58.4349C740.231 58.7276 742.079 60.9021 742.079 63.4412V98.946L724.891 90.3523L707.704 98.946V63.4412C707.704 60.9021 709.551 58.7276 712.073 58.4349C716.278 57.9469 720.555 57.696 724.891 57.696C729.227 57.696 733.504 57.9469 737.709 58.4349Z" stroke="#EBFAFF" stroke-width="1.5" stroke-linecap="round" stroke-linejoin="round"/>
<path d="M858.516 98.946L846.607 87.0369M846.607 87.0369C849.717 83.9266 851.641 79.6297 851.641 74.8835C851.641 65.3912 843.946 57.696 834.454 57.696C824.961 57.696 817.266 65.3912 817.266 74.8835C817.266 84.3759 824.961 92.071 834.454 92.071C839.2 92.071 843.497 90.1473 846.607 87.0369Z" stroke="#EBFAFF" stroke-width="1.5" stroke-linecap="round" stroke-linejoin="round"/>
<path d="M960.11 72.2443H971.552V72.2402M930.23 95.8393V84.3978M930.23 84.3978L941.671 84.3978M930.23 84.3978L937.52 91.6921C939.789 93.9663 942.67 95.6917 945.997 96.5831C956.083 99.2856 966.45 93.3002 969.152 83.2144M932.628 73.4278C935.331 63.342 945.698 57.3566 955.784 60.0591C959.111 60.9505 961.991 62.6759 964.261 64.9502L971.552 72.2402M971.552 60.8029V72.2402" stroke="#EBFAFF" stroke-width="1.5" stroke-linecap="round" stroke-linejoin="round"/>
<path d="M1075.36 74.6699C1075.68 75.6668 1074.86 76.6005 1073.82 76.6005H1065.88C1065.26 76.6005 1064.7 76.273 1064.39 75.7412L1060.42 68.8641C1059.89 67.9576 1060.3 66.7876 1061.32 66.565C1062.15 66.3847 1063.01 66.2898 1063.89 66.2898C1069.26 66.2898 1073.81 69.8103 1075.36 74.6699Z" fill="#EBFAFF"/>
<path d="M1055 70.2176C1055.7 69.4437 1056.92 69.6789 1057.44 70.5858L1061.41 77.4599C1061.72 77.9917 1061.72 78.6469 1061.41 79.1788L1057.44 86.0552C1056.92 86.9622 1055.7 87.1974 1055 86.4233C1053.05 84.2853 1051.86 81.4419 1051.86 78.3211C1051.86 75.1996 1053.05 72.3558 1055 70.2176Z" fill="#EBFAFF"/>
<path d="M1061.32 90.0768C1060.3 89.8541 1059.89 88.6842 1060.42 87.7777L1064.39 80.8974C1064.7 80.3656 1065.26 80.038 1065.88 80.038H1073.82C1074.86 80.038 1075.68 80.9714 1075.36 81.9683C1073.81 86.8299 1069.26 90.3523 1063.89 90.3523C1063.01 90.3523 1062.15 90.2572 1061.32 90.0768Z" fill="#EBFAFF"/>
<path fill-rule="evenodd" clip-rule="evenodd" d="M1084.52 80.0381C1085.47 80.0381 1086.24 79.2685 1086.24 78.3193C1086.24 77.3701 1085.47 76.6006 1084.52 76.6006H1082.72C1082.63 75.5369 1082.44 74.4986 1082.18 73.4931L1083.86 72.8802C1084.75 72.5556 1085.21 71.5693 1084.89 70.6773C1084.56 69.7853 1083.58 69.3254 1082.69 69.65L1081 70.263C1080.55 69.3064 1080.02 68.3937 1079.42 67.5332L1080.8 66.3799C1081.52 65.7697 1081.62 64.6856 1081.01 63.9584C1080.4 63.2313 1079.31 63.1364 1078.59 63.7466L1077.21 64.9009C1076.47 64.1601 1075.66 63.4811 1074.8 62.8722L1075.69 61.3187C1076.17 60.4966 1075.89 59.4454 1075.06 58.9708C1074.24 58.4962 1073.19 58.7779 1072.72 59.5999L1071.82 61.1508C1070.87 60.712 1069.88 60.3495 1068.86 60.0712L1069.17 58.3078C1069.33 57.373 1068.71 56.4815 1067.77 56.3167C1066.84 56.1518 1065.95 56.776 1065.78 57.7109L1065.47 59.4779C1064.95 59.4349 1064.42 59.4131 1063.89 59.4131C1063.36 59.4131 1062.84 59.435 1062.32 59.478L1062 57.711C1061.84 56.7761 1060.95 56.1519 1060.01 56.3168C1059.08 56.4816 1058.45 57.3731 1058.62 58.3079L1058.93 60.0717C1057.9 60.35 1056.91 60.7124 1055.96 61.1512L1055.07 59.5995C1054.59 58.7775 1053.54 58.4958 1052.72 58.9705C1051.9 59.4452 1051.62 60.4963 1052.09 61.3184L1052.99 62.8724C1052.13 63.481 1051.32 64.1597 1050.57 64.9004L1049.2 63.7452C1048.47 63.135 1047.39 63.2299 1046.78 63.957C1046.17 64.6842 1046.26 65.7683 1046.99 66.3784L1048.36 67.5326C1047.76 68.3934 1047.24 69.3064 1046.78 70.2635L1045.1 69.6504C1044.21 69.3257 1043.22 69.7857 1042.9 70.6776C1042.57 71.5696 1043.03 72.5559 1043.92 72.8806L1045.61 73.4936C1045.34 74.4989 1045.16 75.537 1045.06 76.6006H1043.27C1042.32 76.6006 1041.55 77.3701 1041.55 78.3193C1041.55 79.2685 1042.32 80.0381 1043.27 80.0381H1045.06C1045.16 81.1016 1045.34 82.1398 1045.61 83.1452L1043.92 83.7584C1043.03 84.083 1042.57 85.0693 1042.9 85.9613C1043.22 86.8533 1044.21 87.3132 1045.1 86.9886L1046.78 86.3753C1047.24 87.3326 1047.76 88.2458 1048.36 89.1069L1046.99 90.2616C1046.26 90.8717 1046.17 91.9558 1046.78 92.683C1047.39 93.4102 1048.47 93.505 1049.2 92.8949L1050.57 91.739C1051.32 92.4796 1052.13 93.1585 1052.99 93.7672L1052.09 95.3235C1051.62 96.1455 1051.9 97.1967 1052.72 97.6713C1053.54 98.146 1054.59 97.8643 1055.07 97.0422L1055.97 95.4884C1056.91 95.927 1057.9 96.2893 1058.93 96.5675L1058.62 98.3342C1058.45 99.269 1059.08 100.16 1060.01 100.325C1060.95 100.49 1061.84 99.8659 1062 98.9311L1062.32 97.1607C1062.84 97.2037 1063.36 97.2256 1063.89 97.2256C1064.42 97.2256 1064.95 97.2037 1065.47 97.1608L1065.78 98.9312C1065.95 99.866 1066.84 100.49 1067.77 100.325C1068.71 100.161 1069.33 99.2691 1069.17 98.3343L1068.85 96.5676C1069.88 96.2894 1070.87 95.9271 1071.82 95.4885L1072.72 97.0419C1073.19 97.8639 1074.24 98.1456 1075.06 97.671C1075.89 97.1964 1076.17 96.1452 1075.69 95.3231L1074.8 93.7673C1075.66 93.1584 1076.46 92.4793 1077.21 91.7383L1078.59 92.8934C1079.31 93.5036 1080.4 93.4088 1081.01 92.6816C1081.62 91.9544 1081.52 90.8703 1080.8 90.2602L1079.42 89.1061C1080.02 88.2454 1080.55 87.3326 1081 86.3758L1082.69 86.9889C1083.58 87.3136 1084.56 86.8537 1084.89 85.9617C1085.21 85.0697 1084.75 84.0834 1083.86 83.7587L1082.18 83.1456C1082.44 82.1401 1082.63 81.1018 1082.72 80.0381H1084.52ZM1078.43 73.0287C1078.41 72.9906 1078.4 72.9523 1078.39 72.9139C1077.78 71.2684 1076.89 69.7555 1075.79 68.4299C1075.77 68.4128 1075.76 68.3954 1075.74 68.3776C1075.73 68.3602 1075.71 68.3425 1075.7 68.3247C1074.58 66.9988 1073.23 65.8647 1071.73 64.9783C1071.69 64.9617 1071.66 64.9438 1071.63 64.9247C1071.59 64.9051 1071.56 64.8846 1071.53 64.863C1070.05 64.0236 1068.42 63.42 1066.69 63.1038C1066.66 63.0996 1066.62 63.0941 1066.58 63.0872C1066.54 63.0806 1066.5 63.0728 1066.47 63.0638C1065.63 62.9236 1064.77 62.8506 1063.89 62.8506C1063.02 62.8506 1062.16 62.9233 1061.32 63.063C1061.28 63.0723 1061.25 63.0805 1061.21 63.0873C1061.17 63.0944 1061.13 63.1001 1061.09 63.1043C1059.32 63.4279 1057.66 64.0515 1056.16 64.92C1054.6 65.819 1053.22 66.9796 1052.07 68.3415C1052.06 68.3532 1052.05 68.3647 1052.04 68.3762C1052.04 68.382 1052.03 68.3878 1052.03 68.3935C1052.02 68.3995 1052.02 68.4055 1052.01 68.4114C1050.9 69.7419 1050.01 71.2615 1049.39 72.9147C1049.38 72.953 1049.37 72.9911 1049.36 73.029C1049.34 73.067 1049.33 73.1042 1049.31 73.1405C1048.74 74.7599 1048.42 76.5031 1048.42 78.3193C1048.42 80.1397 1048.74 81.8867 1049.32 83.5088C1049.33 83.5419 1049.34 83.5756 1049.36 83.6099C1049.37 83.6442 1049.38 83.6786 1049.39 83.7132C1050.65 87.0855 1053.04 89.9019 1056.11 91.6917C1056.12 91.6964 1056.13 91.7012 1056.14 91.706C1056.14 91.7098 1056.15 91.7136 1056.16 91.7174C1056.17 91.7267 1056.19 91.7362 1056.21 91.7459C1057.71 92.6109 1059.38 93.2293 1061.15 93.5461C1061.17 93.5487 1061.19 93.5516 1061.21 93.5547C1061.22 93.5577 1061.24 93.5609 1061.26 93.5643C1062.11 93.7114 1062.99 93.7881 1063.89 93.7881C1064.79 93.7881 1065.67 93.7114 1066.53 93.5643C1066.55 93.5609 1066.56 93.5577 1066.58 93.5548C1066.6 93.5517 1066.61 93.5488 1066.63 93.5463C1068.4 93.2303 1070.06 92.6141 1071.57 91.7522C1071.59 91.7401 1071.61 91.7284 1071.63 91.7171C1071.65 91.7061 1071.66 91.6956 1071.68 91.6855C1073.22 90.7894 1074.58 89.6367 1075.72 88.2863L1075.74 88.2624L1075.76 88.2377C1076.88 86.903 1077.78 85.3772 1078.39 83.7166C1078.4 83.681 1078.42 83.6456 1078.43 83.6103C1078.44 83.5749 1078.46 83.5402 1078.47 83.5062C1079.05 81.8847 1079.36 80.1387 1079.36 78.3193C1079.36 76.503 1079.05 74.7599 1078.47 73.1408C1078.46 73.1043 1078.44 73.0669 1078.43 73.0287Z" fill="#EBFAFF"/>
<path fill-rule="evenodd" clip-rule="evenodd" d="M1176.89 54.2585C1170.25 54.2585 1164.86 59.6451 1164.86 66.2898V73.1648C1161.06 73.1648 1157.99 76.2428 1157.99 80.0398V95.5085C1157.99 99.3055 1161.06 102.384 1164.86 102.384H1188.92C1192.72 102.384 1195.8 99.3055 1195.8 95.5085V80.0398C1195.8 76.2428 1192.72 73.1648 1188.92 73.1648V66.2898C1188.92 59.6451 1183.54 54.2585 1176.89 54.2585ZM1185.49 73.1648V66.2898C1185.49 61.5436 1181.64 57.696 1176.89 57.696C1172.15 57.696 1168.3 61.5436 1168.3 66.2898V73.1648H1185.49Z" fill="#EBFAFF"/>
<path fill-rule="evenodd" clip-rule="evenodd" d="M1269.27 64.571C1269.27 60.7741 1272.34 57.696 1276.14 57.696H1281.3C1285.09 57.696 1288.17 60.7741 1288.17 64.571V69.7273C1288.17 73.5243 1285.09 76.6023 1281.3 76.6023H1276.14C1272.34 76.6023 1269.27 73.5243 1269.27 69.7273V64.571ZM1291.61 64.571C1291.61 60.7741 1294.69 57.696 1298.49 57.696H1303.64C1307.44 57.696 1310.52 60.7741 1310.52 64.571V69.7273C1310.52 73.5243 1307.44 76.6023 1303.64 76.6023H1298.49C1294.69 76.6023 1291.61 73.5243 1291.61 69.7273V64.571ZM1269.27 86.9148C1269.27 83.1178 1272.34 80.0398 1276.14 80.0398H1281.3C1285.09 80.0398 1288.17 83.1178 1288.17 86.9148V92.071C1288.17 95.868 1285.09 98.946 1281.3 98.946H1276.14C1272.34 98.946 1269.27 95.868 1269.27 92.071V86.9148ZM1291.61 86.9148C1291.61 83.1178 1294.69 80.0398 1298.49 80.0398H1303.64C1307.44 80.0398 1310.52 83.1178 1310.52 86.9148V92.071C1310.52 95.868 1307.44 98.946 1303.64 98.946H1298.49C1294.69 98.946 1291.61 95.868 1291.61 92.071V86.9148Z" fill="#EBFAFF"/>
<path fill-rule="evenodd" clip-rule="evenodd" d="M1402.89 54.2585C1398.49 54.2585 1394.15 54.5132 1389.88 55.0089C1386.44 55.4071 1383.99 58.3543 1383.99 61.7225V100.665C1383.99 101.235 1384.27 101.768 1384.74 102.088C1385.21 102.408 1385.81 102.472 1386.34 102.261L1394.3 99.0784L1402.25 102.261C1402.66 102.425 1403.12 102.425 1403.53 102.261L1411.49 99.0784L1419.44 102.261C1419.97 102.472 1420.57 102.408 1421.04 102.088C1421.51 101.768 1421.8 101.235 1421.8 100.665V61.7225C1421.8 58.3543 1419.34 55.4071 1415.91 55.0089C1411.64 54.5132 1407.29 54.2585 1402.89 54.2585ZM1410.98 70.9426C1411.65 70.2714 1411.65 69.1832 1410.98 68.512C1410.31 67.8407 1409.22 67.8407 1408.55 68.512L1394.8 82.2619C1394.13 82.9332 1394.13 84.0214 1394.8 84.6926C1395.47 85.3638 1396.56 85.3638 1397.23 84.6926L1410.98 70.9426ZM1395.16 71.446C1395.16 70.0222 1396.31 68.8679 1397.74 68.8679C1399.16 68.8679 1400.31 70.0222 1400.31 71.446C1400.31 72.8699 1399.16 74.0242 1397.74 74.0242C1396.31 74.0242 1395.16 72.8699 1395.16 71.446ZM1408.05 79.1804C1406.62 79.1804 1405.47 80.3347 1405.47 81.7585C1405.47 83.1824 1406.62 84.3367 1408.05 84.3367C1409.47 84.3367 1410.63 83.1824 1410.63 81.7585C1410.63 80.3347 1409.47 79.1804 1408.05 79.1804Z" fill="#EBFAFF"/>
<path fill-rule="evenodd" clip-rule="evenodd" d="M45.6819 119.154C45.019 118.527 43.981 118.527 43.3181 119.154C38.6964 123.531 32.4601 126.213 25.5938 126.213C25.4845 126.213 25.3754 126.213 25.2665 126.211C24.5163 126.202 23.8467 126.68 23.6124 127.393C22.667 130.269 22.1562 133.339 22.1562 136.526C22.1562 150.143 31.4697 161.581 44.0716 164.824C44.3526 164.897 44.6474 164.897 44.9284 164.824C57.5303 161.581 66.8438 150.143 66.8438 136.526C66.8438 133.339 66.333 130.269 65.3876 127.393C65.1533 126.68 64.4837 126.202 63.7335 126.211C63.6246 126.213 63.5155 126.213 63.4062 126.213C56.5399 126.213 50.3036 123.531 45.6819 119.154ZM52.7736 137.525C53.3253 136.752 53.1464 135.679 52.374 135.127C51.6016 134.575 50.5281 134.754 49.9764 135.527L42.5619 145.907L38.8403 142.185C38.1691 141.514 37.0809 141.514 36.4097 142.185C35.7384 142.857 35.7384 143.945 36.4097 144.616L41.5659 149.772C41.9232 150.13 42.4195 150.312 42.923 150.27C43.4265 150.228 43.8862 149.967 44.1799 149.556L52.7736 137.525Z" fill="#EBFAFF"/>
<path fill-rule="evenodd" clip-rule="evenodd" d="M147.187 127.932V129.651H142.633C140.435 129.651 138.59 131.311 138.36 133.498L135.465 160.998C135.198 163.535 137.188 165.744 139.739 165.744H175.261C177.812 165.744 179.802 163.535 179.535 160.998L176.64 133.498C176.41 131.311 174.565 129.651 172.367 129.651H167.812V127.932C167.812 122.236 163.195 117.619 157.5 117.619C151.804 117.619 147.187 122.236 147.187 127.932ZM157.5 121.057C153.703 121.057 150.625 124.135 150.625 127.932V129.651H164.375V127.932C164.375 124.135 161.297 121.057 157.5 121.057ZM150.625 139.963C150.625 143.76 153.703 146.838 157.5 146.838C161.297 146.838 164.375 143.76 164.375 139.963V138.244C164.375 137.295 165.144 136.526 166.094 136.526C167.043 136.526 167.812 137.295 167.812 138.244V139.963C167.812 145.659 163.195 150.276 157.5 150.276C151.804 150.276 147.187 145.659 147.187 139.963V138.244C147.187 137.295 147.957 136.526 148.906 136.526C149.855 136.526 150.625 137.295 150.625 138.244V139.963Z" fill="#EBFAFF"/>
<path fill-rule="evenodd" clip-rule="evenodd" d="M286.312 122.432C289.73 122.432 292.5 125.202 292.5 128.619V131.957C292.5 133.122 291.737 134.125 290.76 134.76C288.497 136.231 287 138.782 287 141.682C287 144.582 288.497 147.133 290.76 148.604C291.737 149.239 292.5 150.242 292.5 151.407V154.744C292.5 158.162 289.73 160.932 286.312 160.932H254.687C251.27 160.932 248.5 158.162 248.5 154.744V151.407C248.5 150.242 249.263 149.239 250.24 148.604C252.503 147.133 254 144.582 254 141.682C254 138.782 252.503 136.231 250.24 134.76C249.263 134.125 248.5 133.122 248.5 131.957V128.619C248.5 125.202 251.27 122.432 254.688 122.432H286.312ZM280.125 134.52C280.125 133.381 279.202 132.458 278.062 132.458C276.923 132.458 276 133.381 276 134.52V137.385C276 138.524 276.923 139.448 278.062 139.448C279.202 139.448 280.125 138.524 280.125 137.385V134.52ZM280.125 145.979C280.125 144.84 279.202 143.916 278.062 143.916C276.923 143.916 276 144.84 276 145.979V148.843C276 149.982 276.923 150.906 278.062 150.906C279.202 150.906 280.125 149.982 280.125 148.843V145.979Z" fill="#EBFAFF"/>
<path d="M363.734 121.057C361.361 121.057 359.438 122.981 359.438 125.354V127.073C359.438 129.446 361.361 131.369 363.734 131.369H403.266C405.639 131.369 407.562 129.446 407.562 127.073V125.354C407.562 122.981 405.639 121.057 403.266 121.057H363.734Z" fill="#EBFAFF"/>
<path fill-rule="evenodd" clip-rule="evenodd" d="M363.074 134.807L364.311 155.836C364.525 159.469 367.534 162.307 371.174 162.307H395.825C399.465 162.307 402.475 159.469 402.688 155.836L403.925 134.807H363.074ZM383.5 138.244C384.449 138.244 385.219 139.014 385.219 139.963V151.282L389.16 147.342C389.831 146.67 390.919 146.67 391.59 147.342C392.262 148.013 392.262 149.101 391.59 149.772L384.715 156.647C384.044 157.318 382.956 157.318 382.285 156.647L375.41 149.772C374.738 149.101 374.738 148.013 375.41 147.342C376.081 146.67 377.169 146.67 377.84 147.342L381.781 151.282V139.963C381.781 139.014 382.551 138.244 383.5 138.244Z" fill="#EBFAFF"/>
<path d="M481.348 138.449C481.335 137.5 480.556 136.741 479.607 136.753C478.658 136.766 477.898 137.545 477.911 138.494L478.002 145.369C478.014 146.318 478.794 147.077 479.743 147.065C480.692 147.052 481.451 146.273 481.439 145.323L481.348 138.449Z" fill="#EBFAFF"/>
<path fill-rule="evenodd" clip-rule="evenodd" d="M522.538 133.608C522.481 129.337 518.973 125.92 514.702 125.976L478.611 126.453C474.34 126.509 470.923 130.017 470.98 134.289L471.184 149.756C471.24 154.027 474.749 157.444 479.02 157.388L515.11 156.911C519.382 156.855 522.798 153.346 522.742 149.075L522.538 133.608ZM514.77 131.132C516.194 131.113 517.363 132.252 517.382 133.676L517.416 136.254L516.557 136.265C515.133 136.284 513.994 137.453 514.013 138.877L514.081 144.033C514.1 145.457 515.269 146.595 516.693 146.577L517.552 146.565L517.586 149.143C517.605 150.567 516.466 151.736 515.042 151.755L478.952 152.232C477.528 152.251 476.359 151.112 476.34 149.688L476.135 134.221C476.117 132.797 477.256 131.627 478.679 131.609L514.77 131.132Z" fill="#EBFAFF"/>
<path d="M606.784 157.151C605.835 157.151 605.065 157.92 605.065 158.869C605.065 159.819 605.835 160.588 606.784 160.588H613.659C614.608 160.588 615.378 159.819 615.378 158.869C615.378 157.92 614.608 157.151 613.659 157.151H606.784Z" fill="#EBFAFF"/>
<path fill-rule="evenodd" clip-rule="evenodd" d="M602.487 115.901C598.216 115.901 594.753 119.363 594.753 123.635V159.729C594.753 164 598.216 167.463 602.487 167.463H617.956C622.228 167.463 625.69 164 625.69 159.729V123.635C625.69 119.363 622.228 115.901 617.956 115.901H602.487ZM599.909 123.635C599.909 122.211 601.063 121.057 602.487 121.057H605.065V121.916C605.065 123.34 606.22 124.494 607.644 124.494H612.8C614.224 124.494 615.378 123.34 615.378 121.916V121.057H617.956C619.38 121.057 620.534 122.211 620.534 123.635V159.729C620.534 161.153 619.38 162.307 617.956 162.307H602.487C601.063 162.307 599.909 161.153 599.909 159.729V123.635Z" fill="#EBFAFF"/>
<path fill-rule="evenodd" clip-rule="evenodd" d="M704.315 124.494C704.315 123.545 705.085 122.776 706.034 122.776H707.753C726.738 122.776 742.128 138.166 742.128 157.151V158.869C742.128 159.819 741.358 160.588 740.409 160.588H738.69C737.741 160.588 736.972 159.819 736.972 158.869V157.151C736.972 141.014 723.89 127.932 707.753 127.932H706.034C705.085 127.932 704.315 127.162 704.315 126.213V124.494ZM704.315 139.963C704.315 139.014 705.085 138.244 706.034 138.244H707.753C718.195 138.244 726.659 146.709 726.659 157.151V158.869C726.659 159.819 725.89 160.588 724.94 160.588H723.222C722.272 160.588 721.503 159.819 721.503 158.869V157.151C721.503 149.557 715.347 143.401 707.753 143.401H706.034C705.085 143.401 704.315 142.631 704.315 141.682V139.963ZM704.315 157.151C704.315 155.252 705.854 153.713 707.753 153.713C709.651 153.713 711.19 155.252 711.19 157.151C711.19 159.049 709.651 160.588 707.753 160.588C705.854 160.588 704.315 159.049 704.315 157.151Z" fill="#EBFAFF"/>
<path fill-rule="evenodd" clip-rule="evenodd" d="M813.878 126.213C813.878 122.416 816.956 119.338 820.753 119.338H851.69C855.487 119.338 858.565 122.416 858.565 126.213V148.557C858.565 152.354 855.487 155.432 851.69 155.432H844.815V156.022C844.815 157.389 845.359 158.701 846.326 159.668L847.75 161.092C848.241 161.583 848.388 162.322 848.122 162.965C847.856 163.607 847.229 164.026 846.534 164.026H825.909C825.214 164.026 824.587 163.607 824.321 162.965C824.055 162.322 824.202 161.583 824.694 161.092L826.118 159.668C827.085 158.701 827.628 157.389 827.628 156.022V155.432H820.753C816.956 155.432 813.878 152.354 813.878 148.557V126.213ZM817.315 126.213V143.401C817.315 145.299 818.854 146.838 820.753 146.838H851.69C853.589 146.838 855.128 145.299 855.128 143.401V126.213C855.128 124.315 853.589 122.776 851.69 122.776H820.753C818.854 122.776 817.315 124.315 817.315 126.213Z" fill="#EBFAFF"/>
<path d="M935.472 160.588H962.972M945.784 153.713V160.588M952.659 153.713V160.588M929.456 153.713H968.987C970.411 153.713 971.565 152.559 971.565 151.135V125.354C971.565 123.93 970.411 122.776 968.987 122.776H929.456C928.032 122.776 926.878 123.93 926.878 125.354V151.135C926.878 152.559 928.032 153.713 929.456 153.713Z" stroke="#EBFAFF" stroke-width="1.5" stroke-linecap="round" stroke-linejoin="round"/>
<path fill-rule="evenodd" clip-rule="evenodd" d="M1038.16 127.932C1038.16 125.084 1040.47 122.776 1043.32 122.776H1081.13C1083.98 122.776 1086.28 125.084 1086.28 127.932V155.432C1086.28 158.28 1083.98 160.588 1081.13 160.588H1043.32C1040.47 160.588 1038.16 158.28 1038.16 155.432V127.932ZM1041.6 150.988V155.432C1041.6 156.381 1042.37 157.151 1043.32 157.151H1081.13C1082.08 157.151 1082.85 156.381 1082.85 155.432V150.988L1076.68 144.824C1075.34 143.482 1073.16 143.482 1071.82 144.824L1069.81 146.838L1072.03 149.06C1072.7 149.732 1072.7 150.82 1072.03 151.491C1071.36 152.162 1070.27 152.162 1069.6 151.491L1057.78 139.668C1056.43 138.326 1054.26 138.326 1052.92 139.668L1041.6 150.988ZM1064.8 133.088C1064.8 131.664 1065.95 130.51 1067.38 130.51C1068.8 130.51 1069.96 131.664 1069.96 133.088C1069.96 134.512 1068.8 135.666 1067.38 135.666C1065.95 135.666 1064.8 134.512 1064.8 133.088Z" fill="#EBFAFF"/>
<path fill-rule="evenodd" clip-rule="evenodd" d="M1158.03 122.776C1154.24 122.776 1151.16 125.854 1151.16 129.651V153.713C1151.16 157.51 1154.24 160.588 1158.03 160.588H1192.41C1196.21 160.588 1199.28 157.51 1199.28 153.713V129.651C1199.28 125.854 1196.21 122.776 1192.41 122.776H1158.03ZM1167.49 129.651C1164.64 129.651 1162.33 131.959 1162.33 134.807C1162.33 137.655 1164.64 139.963 1167.49 139.963C1170.34 139.963 1172.64 137.655 1172.64 134.807C1172.64 131.959 1170.34 129.651 1167.49 129.651ZM1158.61 149.594C1159.94 145.982 1163.41 143.401 1167.49 143.401C1171.57 143.401 1175.04 145.982 1176.36 149.594C1176.66 150.4 1176.32 151.301 1175.56 151.704C1173.15 152.987 1170.4 153.713 1167.49 153.713C1164.57 153.713 1161.82 152.987 1159.42 151.704C1158.66 151.301 1158.32 150.4 1158.61 149.594ZM1182.1 133.088C1181.15 133.088 1180.38 133.858 1180.38 134.807C1180.38 135.756 1181.15 136.526 1182.1 136.526H1190.69C1191.64 136.526 1192.41 135.756 1192.41 134.807C1192.41 133.858 1191.64 133.088 1190.69 133.088H1182.1ZM1180.38 141.682C1180.38 140.733 1181.15 139.963 1182.1 139.963H1190.69C1191.64 139.963 1192.41 140.733 1192.41 141.682C1192.41 142.631 1191.64 143.401 1190.69 143.401H1182.1C1181.15 143.401 1180.38 142.631 1180.38 141.682ZM1182.1 146.838C1181.15 146.838 1180.38 147.608 1180.38 148.557C1180.38 149.506 1181.15 150.276 1182.1 150.276H1190.69C1191.64 150.276 1192.41 149.506 1192.41 148.557C1192.41 147.608 1191.64 146.838 1190.69 146.838H1182.1Z" fill="#EBFAFF"/>
<path d="M1288.22 119.338C1289.17 119.338 1289.94 120.108 1289.94 121.057V126.213C1289.94 127.162 1289.17 127.932 1288.22 127.932C1287.27 127.932 1286.5 127.162 1286.5 126.213V121.057C1286.5 120.108 1287.27 119.338 1288.22 119.338Z" fill="#EBFAFF"/>
<path d="M1277.91 141.682C1277.91 135.986 1282.53 131.369 1288.22 131.369C1293.92 131.369 1298.53 135.986 1298.53 141.682C1298.53 147.377 1293.92 151.994 1288.22 151.994C1282.53 151.994 1277.91 147.377 1277.91 141.682Z" fill="#EBFAFF"/>
<path d="M1304.02 128.313C1304.69 127.642 1304.69 126.554 1304.02 125.882C1303.35 125.211 1302.26 125.211 1301.59 125.882L1297.94 129.528C1297.27 130.2 1297.27 131.288 1297.94 131.959C1298.62 132.63 1299.7 132.63 1300.38 131.959L1304.02 128.313Z" fill="#EBFAFF"/>
<path d="M1310.57 141.682C1310.57 142.631 1309.8 143.401 1308.85 143.401H1303.69C1302.74 143.401 1301.97 142.631 1301.97 141.682C1301.97 140.733 1302.74 139.963 1303.69 139.963H1308.85C1309.8 139.963 1310.57 140.733 1310.57 141.682Z" fill="#EBFAFF"/>
<path d="M1301.59 157.481C1302.26 158.152 1303.35 158.152 1304.02 157.481C1304.69 156.81 1304.69 155.722 1304.02 155.051L1300.37 151.405C1299.7 150.733 1298.62 150.733 1297.94 151.405C1297.27 152.076 1297.27 153.164 1297.94 153.835L1301.59 157.481Z" fill="#EBFAFF"/>
<path d="M1288.22 155.432C1289.17 155.432 1289.94 156.201 1289.94 157.151V162.307C1289.94 163.256 1289.17 164.026 1288.22 164.026C1287.27 164.026 1286.5 163.256 1286.5 162.307V157.151C1286.5 156.201 1287.27 155.432 1288.22 155.432Z" fill="#EBFAFF"/>
<path d="M1278.5 153.835C1279.17 153.164 1279.17 152.076 1278.5 151.405C1277.83 150.733 1276.74 150.733 1276.07 151.405L1272.42 155.051C1271.75 155.722 1271.75 156.81 1272.42 157.481C1273.09 158.152 1274.18 158.152 1274.85 157.481L1278.5 153.835Z" fill="#EBFAFF"/>
<path d="M1274.47 141.682C1274.47 142.631 1273.7 143.401 1272.75 143.401H1267.6C1266.65 143.401 1265.88 142.631 1265.88 141.682C1265.88 140.733 1266.65 139.963 1267.6 139.963H1272.75C1273.7 139.963 1274.47 140.733 1274.47 141.682Z" fill="#EBFAFF"/>
<path d="M1276.07 131.959C1276.74 132.63 1277.83 132.63 1278.5 131.959C1279.17 131.288 1279.17 130.2 1278.5 129.528L1274.85 125.882C1274.18 125.211 1273.09 125.211 1272.42 125.882C1271.75 126.554 1271.75 127.642 1272.42 128.313L1276.07 131.959Z" fill="#EBFAFF"/>
<path fill-rule="evenodd" clip-rule="evenodd" d="M1395.56 118.119C1396.05 118.611 1396.2 119.353 1395.93 119.996C1394.91 122.437 1394.35 125.116 1394.35 127.932C1394.35 139.323 1403.58 148.557 1414.97 148.557C1417.79 148.557 1420.47 147.994 1422.91 146.975C1423.55 146.707 1424.29 146.854 1424.79 147.346C1425.28 147.839 1425.42 148.581 1425.16 149.224C1421.53 157.913 1412.95 164.026 1402.94 164.026C1389.65 164.026 1378.88 153.253 1378.88 139.963C1378.88 129.953 1384.99 121.374 1393.68 117.748C1394.32 117.48 1395.06 117.626 1395.56 118.119Z" fill="#EBFAFF"/>
<path d="M43.6864 225.463L43.6714 225.455L43.6195 225.427C43.5753 225.403 43.5121 225.368 43.4311 225.323C43.2692 225.232 43.0362 225.1 42.7422 224.927C42.1545 224.581 41.3219 224.072 40.3258 223.41C38.3371 222.088 35.6799 220.145 33.0155 217.661C27.7429 212.746 22.1562 205.444 22.1562 196.449C22.1562 189.739 27.802 184.417 34.6172 184.417C38.625 184.417 42.2137 186.249 44.5 189.119C46.7864 186.249 50.375 184.417 54.3828 184.417C61.198 184.417 66.8438 189.739 66.8438 196.449C66.8438 205.444 61.2571 212.746 55.9845 217.661C53.3201 220.145 50.6629 222.088 48.6742 223.41C47.6781 224.072 46.8455 224.581 46.2578 224.927C45.9638 225.1 45.7308 225.232 45.5689 225.323C45.4879 225.368 45.4247 225.403 45.3805 225.427L45.3286 225.455L45.3136 225.463L45.3073 225.466C44.8032 225.734 44.1968 225.734 43.6927 225.466L43.6864 225.463Z" fill="#EBFAFF"/>
<path d="M166.048 190.147L168.419 190.147C170.209 192.859 171.25 196.108 171.25 199.6C171.25 203.092 170.209 206.341 168.419 209.053L168.082 209.053C166.234 209.053 164.566 210.075 163.426 211.529C161.654 213.788 159.421 215.668 156.869 217.027C155.214 217.909 153.778 219.218 153.081 220.959C152.594 222.177 152.344 223.477 152.344 224.789V226.24C152.344 227.19 151.574 227.959 150.625 227.959C147.777 227.959 145.469 225.651 145.469 222.803C145.469 220.164 146.064 217.664 147.126 215.429C147.735 214.15 146.881 212.49 145.464 212.49L138.301 212.49C135.948 212.49 133.842 210.9 133.593 208.561C133.49 207.593 133.437 206.61 133.438 205.615C133.438 199.09 135.711 193.095 139.508 188.379C140.396 187.276 141.77 186.709 143.186 186.709L152.389 186.709C153.497 186.709 154.599 186.888 155.65 187.238L162.787 189.618C163.839 189.968 164.94 190.147 166.048 190.147Z" fill="#EBFAFF"/>
<path d="M179.657 209.678C180.887 206.558 181.562 203.158 181.562 199.6C181.562 196.804 181.145 194.105 180.37 191.563C179.775 189.615 177.886 188.428 175.85 188.428L173.769 188.428C172.748 188.428 172.118 189.57 172.569 190.485C173.926 193.234 174.688 196.328 174.688 199.6C174.688 203.514 173.597 207.174 171.703 210.292C171.142 211.217 171.768 212.49 172.849 212.49H175.262C177.169 212.49 178.958 211.452 179.657 209.678Z" fill="#EBFAFF"/>
<path d="M260.171 219.938C259.198 219.938 258.292 219.396 257.936 218.491C257.17 216.544 256.75 214.423 256.75 212.204C256.75 208.196 258.122 204.508 260.422 201.584C260.768 201.145 261.275 200.876 261.797 200.674C262.88 200.255 263.837 199.496 264.574 198.556C266.346 196.297 268.579 194.417 271.131 193.057C272.786 192.176 274.222 190.867 274.919 189.126C275.406 187.908 275.656 186.608 275.656 185.296V183.844C275.656 182.895 276.426 182.126 277.375 182.126C280.223 182.126 282.531 184.434 282.531 187.282C282.531 189.921 281.936 192.421 280.874 194.656C280.265 195.935 281.119 197.594 282.536 197.594H289.699C292.052 197.594 294.158 199.185 294.407 201.524C294.51 202.492 294.562 203.475 294.562 204.469C294.562 210.995 292.289 216.99 288.492 221.706C287.604 222.809 286.23 223.376 284.814 223.376H275.611C274.503 223.376 273.401 223.197 272.35 222.847L265.213 220.467C264.161 220.117 263.06 219.938 261.952 219.938H260.171Z" fill="#EBFAFF"/>
<path d="M248.343 202.125C247.113 205.246 246.438 208.646 246.438 212.204C246.438 215 246.855 217.698 247.63 220.241C248.225 222.189 250.114 223.376 252.15 223.376H254.231C255.252 223.376 255.882 222.234 255.431 221.318C254.074 218.57 253.312 215.476 253.312 212.204C253.312 208.289 254.403 204.629 256.297 201.512C256.858 200.587 256.232 199.313 255.151 199.313H252.738C250.831 199.313 249.042 200.351 248.343 202.125Z" fill="#EBFAFF"/>
<path d="M382.285 186.345C382.956 185.674 384.044 185.674 384.715 186.345L404.628 206.258C405.3 206.929 406.388 206.929 407.059 206.258C407.73 205.587 407.73 204.498 407.059 203.827L387.146 183.914C385.132 181.9 381.868 181.9 379.854 183.914L359.941 203.827C359.27 204.498 359.27 205.587 359.941 206.258C360.612 206.929 361.7 206.929 362.372 206.258L382.285 186.345Z" fill="#EBFAFF"/>
<path d="M383.5 189.991L402.198 208.688C402.266 208.757 402.335 208.822 402.406 208.886V223.089C402.406 225.462 400.482 227.386 398.109 227.386H390.375C389.426 227.386 388.656 226.617 388.656 225.667V215.355C388.656 214.406 387.887 213.636 386.938 213.636H380.062C379.113 213.636 378.344 214.406 378.344 215.355V225.667C378.344 226.617 377.574 227.386 376.625 227.386H368.891C366.518 227.386 364.594 225.462 364.594 223.089V208.886C364.665 208.822 364.734 208.757 364.802 208.688L383.5 189.991Z" fill="#EBFAFF"/>
<path fill-rule="evenodd" clip-rule="evenodd" d="M489.625 187.855C490.392 187.855 491.067 188.364 491.278 189.102L493.141 195.624C493.957 198.479 496.188 200.711 499.043 201.526L505.566 203.39C506.304 203.601 506.812 204.275 506.812 205.042C506.812 205.81 506.304 206.484 505.566 206.695L499.043 208.559C496.188 209.374 493.957 211.606 493.141 214.461L491.278 220.983C491.067 221.721 490.392 222.23 489.625 222.23C488.858 222.23 488.183 221.721 487.972 220.983L486.109 214.461C485.293 211.606 483.062 209.374 480.207 208.559L473.684 206.695C472.946 206.484 472.438 205.81 472.438 205.042C472.438 204.275 472.946 203.601 473.684 203.39L480.207 201.526C483.062 200.711 485.293 198.479 486.109 195.624L487.972 189.102C488.183 188.364 488.858 187.855 489.625 187.855Z" fill="#EBFAFF"/>
<path fill-rule="evenodd" clip-rule="evenodd" d="M510.25 180.98C511.039 180.98 511.726 181.517 511.917 182.282L512.511 184.655C513.049 186.81 514.732 188.493 516.888 189.032L519.261 189.625C520.026 189.816 520.562 190.504 520.562 191.292C520.562 192.081 520.026 192.769 519.261 192.96L516.888 193.553C514.732 194.092 513.049 195.775 512.511 197.93L511.917 200.303C511.726 201.068 511.039 201.605 510.25 201.605C509.461 201.605 508.774 201.068 508.583 200.303L507.989 197.93C507.451 195.775 505.768 194.092 503.612 193.553L501.239 192.96C500.474 192.769 499.938 192.081 499.938 191.292C499.938 190.504 500.474 189.816 501.239 189.625L503.612 189.032C505.768 188.493 507.451 186.81 507.989 184.655L508.583 182.282C508.774 181.517 509.461 180.98 510.25 180.98Z" fill="#EBFAFF"/>
<path fill-rule="evenodd" clip-rule="evenodd" d="M506.812 211.917C507.552 211.917 508.209 212.391 508.443 213.093L509.347 215.803C509.689 216.83 510.494 217.635 511.521 217.977L514.231 218.881C514.933 219.115 515.406 219.771 515.406 220.511C515.406 221.251 514.933 221.908 514.231 222.142L511.521 223.045C510.494 223.387 509.689 224.193 509.347 225.219L508.443 227.93C508.209 228.632 507.552 229.105 506.812 229.105C506.073 229.105 505.416 228.632 505.182 227.93L504.278 225.219C503.936 224.193 503.131 223.387 502.104 223.045L499.394 222.142C498.692 221.908 498.219 221.251 498.219 220.511C498.219 219.771 498.692 219.115 499.394 218.881L502.104 217.977C503.131 217.635 503.936 216.83 504.278 215.803L505.182 213.093C505.416 212.391 506.073 211.917 506.812 211.917Z" fill="#EBFAFF"/>
<path fill-rule="evenodd" clip-rule="evenodd" d="M619.813 187.805V188.325C622.001 188.525 624.17 188.788 626.32 189.113C627.116 189.233 627.909 189.362 628.7 189.499C629.635 189.661 630.262 190.55 630.1 191.486C629.938 192.421 629.048 193.048 628.113 192.886C627.954 192.858 627.794 192.831 627.634 192.804L625.33 222.757C625.055 226.339 622.068 229.105 618.475 229.105H600.525C596.933 229.105 593.946 226.339 593.67 222.757L591.366 192.804C591.207 192.831 591.047 192.858 590.887 192.886C589.952 193.048 589.063 192.421 588.901 191.486C588.738 190.55 589.365 189.661 590.301 189.499C591.091 189.362 591.884 189.233 592.68 189.113C594.83 188.788 597 188.525 599.188 188.325V187.805C599.188 184.22 601.967 181.159 605.64 181.042C606.922 181.001 608.209 180.98 609.5 180.98C610.792 180.98 612.079 181.001 613.361 181.042C617.034 181.159 619.813 184.22 619.813 187.805ZM605.75 184.477C606.995 184.438 608.245 184.417 609.5 184.417C610.755 184.417 612.006 184.438 613.251 184.477C614.98 184.533 616.375 185.985 616.375 187.805V188.063C614.101 187.925 611.809 187.855 609.5 187.855C607.192 187.855 604.899 187.925 602.625 188.063V187.805C602.625 185.985 604.02 184.533 605.75 184.477ZM604.937 198.101C604.9 197.153 604.102 196.414 603.153 196.45C602.205 196.486 601.465 197.285 601.502 198.234L602.295 218.859C602.331 219.807 603.13 220.546 604.079 220.51C605.027 220.473 605.766 219.675 605.73 218.726L604.937 198.101ZM617.497 198.234C617.533 197.285 616.794 196.486 615.845 196.45C614.897 196.414 614.098 197.153 614.062 198.101L613.269 218.726C613.232 219.675 613.971 220.473 614.92 220.51C615.868 220.546 616.667 219.807 616.703 218.859L617.497 198.234Z" fill="#EBFAFF"/>
<path fill-rule="evenodd" clip-rule="evenodd" d="M698.438 190.433C698.438 188.06 700.361 186.136 702.734 186.136H742.266C744.639 186.136 746.562 188.06 746.562 190.433V219.652C746.562 222.025 744.639 223.949 742.266 223.949H702.734C700.361 223.949 698.438 222.025 698.438 219.652V190.433ZM701.875 190.433V193.871C701.875 194.345 702.26 194.73 702.734 194.73H706.172C706.646 194.73 707.031 194.345 707.031 193.871V190.433C707.031 189.958 706.646 189.574 706.172 189.574H702.734C702.26 189.574 701.875 189.958 701.875 190.433ZM738.828 189.574C738.354 189.574 737.969 189.958 737.969 190.433V193.871C737.969 194.345 738.354 194.73 738.828 194.73H742.266C742.74 194.73 743.125 194.345 743.125 193.871V190.433C743.125 189.958 742.74 189.574 742.266 189.574H738.828ZM743.125 199.027C743.125 198.552 742.74 198.167 742.266 198.167H738.828C738.354 198.167 737.969 198.552 737.969 199.027V202.464C737.969 202.939 738.354 203.324 738.828 203.324H742.266C742.74 203.324 743.125 202.939 743.125 202.464V199.027ZM743.125 207.621C743.125 207.146 742.74 206.761 742.266 206.761H738.828C738.354 206.761 737.969 207.146 737.969 207.621V211.058C737.969 211.533 738.354 211.917 738.828 211.917H742.266C742.74 211.917 743.125 211.533 743.125 211.058V207.621ZM743.125 216.214C743.125 215.74 742.74 215.355 742.266 215.355H738.828C738.354 215.355 737.969 215.74 737.969 216.214V219.652C737.969 220.126 738.354 220.511 738.828 220.511H742.266C742.74 220.511 743.125 220.126 743.125 219.652V216.214ZM706.172 220.511C706.646 220.511 707.031 220.126 707.031 219.652V216.214C707.031 215.74 706.646 215.355 706.172 215.355H702.734C702.26 215.355 701.875 215.74 701.875 216.214V219.652C701.875 220.126 702.26 220.511 702.734 220.511H706.172ZM702.734 211.917H706.172C706.646 211.917 707.031 211.533 707.031 211.058V207.621C707.031 207.146 706.646 206.761 706.172 206.761H702.734C702.26 206.761 701.875 207.146 701.875 207.621V211.058C701.875 211.533 702.26 211.917 702.734 211.917ZM702.734 203.324H706.172C706.646 203.324 707.031 202.939 707.031 202.464V199.027C707.031 198.552 706.646 198.167 706.172 198.167H702.734C702.26 198.167 701.875 198.552 701.875 199.027V202.464C701.875 202.939 702.26 203.324 702.734 203.324ZM712.188 203.324C711.238 203.324 710.469 204.093 710.469 205.042C710.469 205.992 711.238 206.761 712.188 206.761H732.812C733.762 206.761 734.531 205.992 734.531 205.042C734.531 204.093 733.762 203.324 732.812 203.324H712.188Z" fill="#EBFAFF"/>
<path d="M818.312 186.136C814.516 186.136 811.438 189.214 811.438 193.011V194.73H859.562V193.011C859.562 189.214 856.484 186.136 852.688 186.136H818.312Z" fill="#EBFAFF"/>
<path fill-rule="evenodd" clip-rule="evenodd" d="M859.562 199.886H811.438V217.074C811.438 220.871 814.516 223.949 818.313 223.949H852.688C856.484 223.949 859.562 220.871 859.562 217.074V199.886ZM818.312 208.48C818.312 207.531 819.082 206.761 820.031 206.761H833.781C834.73 206.761 835.5 207.531 835.5 208.48C835.5 209.429 834.73 210.199 833.781 210.199H820.031C819.082 210.199 818.312 209.429 818.312 208.48ZM820.031 213.636C819.082 213.636 818.312 214.406 818.312 215.355C818.312 216.304 819.082 217.074 820.031 217.074H826.906C827.855 217.074 828.625 216.304 828.625 215.355C828.625 214.406 827.855 213.636 826.906 213.636H820.031Z" fill="#EBFAFF"/>
<path fill-rule="evenodd" clip-rule="evenodd" d="M957.094 187.855C957.094 184.058 960.172 180.98 963.969 180.98C967.766 180.98 970.844 184.058 970.844 187.855C970.844 191.652 967.766 194.73 963.969 194.73C962.006 194.73 960.236 193.907 958.985 192.59L939.686 203.312C939.83 203.865 939.906 204.446 939.906 205.042C939.906 205.639 939.83 206.22 939.686 206.773L958.985 217.495C960.236 216.178 962.006 215.355 963.969 215.355C967.766 215.355 970.844 218.433 970.844 222.23C970.844 226.027 967.766 229.105 963.969 229.105C960.172 229.105 957.094 226.027 957.094 222.23C957.094 221.633 957.17 221.053 957.314 220.499L938.015 209.778C936.764 211.094 934.994 211.917 933.031 211.917C929.234 211.917 926.156 208.839 926.156 205.042C926.156 201.246 929.234 198.167 933.031 198.167C934.994 198.167 936.764 198.991 938.015 200.307L957.314 189.586C957.17 189.032 957.094 188.452 957.094 187.855Z" fill="#EBFAFF"/>
<path fill-rule="evenodd" clip-rule="evenodd" d="M1045.11 183.893C1050.46 183.106 1055.93 182.699 1061.5 182.699C1067.07 182.699 1072.54 183.106 1077.89 183.892C1082.42 184.559 1085.56 188.53 1085.56 192.99V206.783C1085.56 211.243 1082.42 215.213 1077.89 215.88C1075.26 216.266 1072.61 216.561 1069.92 216.761C1069.64 216.782 1069.39 216.93 1069.24 217.151L1062.93 226.621C1062.61 227.099 1062.07 227.386 1061.5 227.386C1060.93 227.386 1060.39 227.099 1060.07 226.621L1053.76 217.15C1053.61 216.93 1053.36 216.782 1053.08 216.761C1050.39 216.561 1047.74 216.266 1045.11 215.88C1040.58 215.213 1037.44 211.242 1037.44 206.783V192.99C1037.44 188.53 1040.58 184.559 1045.11 183.893ZM1049.47 196.449C1049.47 195.499 1050.24 194.73 1051.19 194.73H1071.81C1072.76 194.73 1073.53 195.499 1073.53 196.449C1073.53 197.398 1072.76 198.167 1071.81 198.167H1051.19C1050.24 198.167 1049.47 197.398 1049.47 196.449ZM1051.19 201.605C1050.24 201.605 1049.47 202.374 1049.47 203.324C1049.47 204.273 1050.24 205.042 1051.19 205.042H1061.5C1062.45 205.042 1063.22 204.273 1063.22 203.324C1063.22 202.374 1062.45 201.605 1061.5 201.605H1051.19Z" fill="#EBFAFF"/>
<path fill-rule="evenodd" clip-rule="evenodd" d="M1152.76 202.004C1151.09 203.682 1151.09 206.403 1152.76 208.081L1167.37 222.69C1168.18 223.496 1169.27 223.949 1170.41 223.949H1191.69C1195.48 223.949 1198.56 220.871 1198.56 217.074V193.011C1198.56 189.214 1195.48 186.136 1191.69 186.136L1170.41 186.136C1169.27 186.136 1168.18 186.589 1167.37 187.395L1152.76 202.004ZM1175.72 198.671C1175.04 198 1173.96 198 1173.28 198.671C1172.61 199.342 1172.61 200.43 1173.28 201.102L1177.23 205.042L1173.28 208.983C1172.61 209.655 1172.61 210.743 1173.28 211.414C1173.96 212.085 1175.04 212.085 1175.72 211.414L1179.66 207.473L1183.6 211.414C1184.27 212.085 1185.36 212.085 1186.03 211.414C1186.7 210.743 1186.7 209.655 1186.03 208.983L1182.09 205.042L1186.03 201.102C1186.7 200.43 1186.7 199.342 1186.03 198.671C1185.36 198 1184.27 198 1183.6 198.671L1179.66 202.612L1175.72 198.671Z" fill="#EBFAFF"/>
<path fill-rule="evenodd" clip-rule="evenodd" d="M1284.06 191.292C1284.06 189.394 1285.6 187.855 1287.5 187.855C1289.4 187.855 1290.94 189.394 1290.94 191.292C1290.94 193.191 1289.4 194.73 1287.5 194.73C1285.6 194.73 1284.06 193.191 1284.06 191.292ZM1284.06 205.042C1284.06 203.144 1285.6 201.605 1287.5 201.605C1289.4 201.605 1290.94 203.144 1290.94 205.042C1290.94 206.941 1289.4 208.48 1287.5 208.48C1285.6 208.48 1284.06 206.941 1284.06 205.042ZM1284.06 218.792C1284.06 216.894 1285.6 215.355 1287.5 215.355C1289.4 215.355 1290.94 216.894 1290.94 218.792C1290.94 220.691 1289.4 222.23 1287.5 222.23C1285.6 222.23 1284.06 220.691 1284.06 218.792Z" fill="#EBFAFF"/>
<path d="M1391.91 198.167V189.574C1391.91 186.726 1394.21 184.417 1397.06 184.417H1410.81C1413.66 184.417 1415.97 186.726 1415.97 189.574V220.511C1415.97 223.359 1413.66 225.667 1410.81 225.667H1397.06C1394.21 225.667 1391.91 223.359 1391.91 220.511V211.917M1385.03 211.917L1378.16 205.042M1378.16 205.042L1385.03 198.167M1378.16 205.042L1407.37 205.042" stroke="#EBFAFF" stroke-width="1.5" stroke-linecap="round" stroke-linejoin="round"/>
<path d="M41.0676 285.242L23.8888 268.046M23.8888 268.046L41.085 250.867M23.8888 268.046L65.1388 268.067" stroke="#EBFAFF" stroke-width="1.5" stroke-linecap="round" stroke-linejoin="round"/>
<path fill-rule="evenodd" clip-rule="evenodd" d="M135.184 268.056C135.184 255.716 145.187 245.713 157.527 245.713C169.867 245.713 179.871 255.716 179.871 268.056C179.871 280.397 169.867 290.4 157.527 290.4C145.187 290.4 135.184 280.397 135.184 268.056ZM150.652 259.463C149.703 259.463 148.934 260.232 148.934 261.181V274.931C148.934 275.881 149.703 276.65 150.652 276.65H152.371C153.32 276.65 154.09 275.881 154.09 274.931V261.181C154.09 260.232 153.32 259.463 152.371 259.463H150.652ZM162.684 259.463C161.734 259.463 160.965 260.232 160.965 261.181V274.931C160.965 275.881 161.734 276.65 162.684 276.65H164.402C165.352 276.65 166.121 275.881 166.121 274.931V261.181C166.121 260.232 165.352 259.463 164.402 259.463H162.684Z" fill="#EBFAFF"/>
<path fill-rule="evenodd" clip-rule="evenodd" d="M258.496 252.588C258.496 251.638 259.266 250.869 260.215 250.869H263.652C264.602 250.869 265.371 251.638 265.371 252.588V283.525C265.371 284.474 264.602 285.244 263.652 285.244H260.215C259.759 285.244 259.322 285.063 259 284.74C258.677 284.418 258.496 283.981 258.496 283.525L258.496 252.588ZM275.684 252.588C275.684 251.638 276.453 250.869 277.402 250.869H280.84C281.296 250.869 281.733 251.05 282.055 251.372C282.378 251.695 282.559 252.132 282.559 252.588L282.559 283.525C282.559 284.474 281.789 285.244 280.84 285.244H277.402C276.453 285.244 275.684 284.474 275.684 283.525V252.588Z" fill="#EBFAFF"/>
<path fill-rule="evenodd" clip-rule="evenodd" d="M361.184 268.056C361.184 255.716 371.187 245.713 383.527 245.713C395.867 245.713 405.871 255.716 405.871 268.056C405.871 280.397 395.867 290.4 383.527 290.4C371.187 290.4 361.184 280.397 361.184 268.056ZM393.322 265.803C395.09 266.785 395.09 269.328 393.322 270.31L380.483 277.443C378.764 278.398 376.652 277.156 376.652 275.19V260.923C376.652 258.957 378.764 257.715 380.483 258.67L393.322 265.803Z" fill="#EBFAFF"/>
<path fill-rule="evenodd" clip-rule="evenodd" d="M474.184 268.056C474.184 255.716 484.187 245.713 496.527 245.713C508.867 245.713 518.871 255.716 518.871 268.056C518.871 280.397 508.867 290.4 496.527 290.4C484.187 290.4 474.184 280.397 474.184 268.056ZM487.934 262.47C487.934 260.809 489.28 259.463 490.941 259.463H502.113C503.774 259.463 505.121 260.809 505.121 262.47V273.642C505.121 275.304 503.774 276.65 502.113 276.65H490.941C489.28 276.65 487.934 275.304 487.934 273.642V262.47Z" fill="#EBFAFF"/>
<path d="M616.403 256.025C615.454 256.025 614.684 256.795 614.684 257.744V281.806C614.684 282.262 614.865 282.699 615.187 283.022C615.51 283.344 615.947 283.525 616.403 283.525H618.122C619.071 283.525 619.84 282.756 619.84 281.806V257.744C619.84 256.795 619.071 256.025 618.122 256.025H616.403Z" fill="#EBFAFF"/>
<path d="M628.434 256.025C627.485 256.025 626.715 256.795 626.715 257.744V281.806C626.715 282.756 627.485 283.525 628.434 283.525H630.153C631.102 283.525 631.872 282.756 631.872 281.806L631.872 257.744C631.872 257.288 631.691 256.851 631.368 256.529C631.046 256.206 630.609 256.025 630.153 256.025H628.434Z" fill="#EBFAFF"/>
<path d="M593.613 256.737C590.748 255.1 587.184 257.168 587.184 260.468V279.083C587.184 282.382 590.748 284.45 593.613 282.813L609.901 273.506C612.788 271.856 612.788 267.694 609.901 266.044L593.613 256.737Z" fill="#EBFAFF"/>
<path fill-rule="evenodd" clip-rule="evenodd" d="M705.34 257.744C705.34 253.947 708.418 250.869 712.215 250.869H732.84C736.637 250.869 739.715 253.947 739.715 257.744V278.369C739.715 282.166 736.637 285.244 732.84 285.244H712.215C708.418 285.244 705.34 282.166 705.34 278.369V257.744Z" fill="#EBFAFF"/>
<path fill-rule="evenodd" clip-rule="evenodd" d="M818.34 253.511C818.34 250.242 821.844 248.171 824.708 249.746L851.155 264.291C854.123 265.924 854.123 270.189 851.155 271.821L824.708 286.367C821.844 287.942 818.34 285.871 818.34 282.602V253.511Z" fill="#EBFAFF"/>
<path d="M951.965 249.862C951.965 246.8 948.263 245.266 946.097 247.431L935.785 257.744H931.361C928.746 257.744 926.049 259.267 925.266 262.11C924.744 264.005 924.465 266 924.465 268.056C924.465 270.113 924.744 272.108 925.266 274.003C926.049 276.846 928.746 278.369 931.361 278.369H935.785L946.097 288.681C948.263 290.847 951.965 289.313 951.965 286.251V249.862Z" fill="#EBFAFF"/>
<path d="M961.774 261.685C961.103 261.014 960.015 261.014 959.344 261.685C958.673 262.356 958.673 263.444 959.344 264.116L963.285 268.056L959.344 271.997C958.673 272.669 958.673 273.757 959.344 274.428C960.015 275.099 961.103 275.099 961.774 274.428L965.715 270.487L969.656 274.428C970.327 275.099 971.416 275.099 972.087 274.428C972.758 273.757 972.758 272.669 972.087 271.997L968.146 268.056L972.087 264.116C972.758 263.444 972.758 262.356 972.087 261.685C971.416 261.014 970.327 261.014 969.656 261.685L965.715 265.626L961.774 261.685Z" fill="#EBFAFF"/>
<path d="M1065.46 244.934C1065.46 241.042 1061.22 239.093 1058.75 241.845L1046.96 254.951H1041.91C1038.92 254.951 1035.84 256.886 1034.94 260.499C1034.35 262.908 1034.03 265.442 1034.03 268.056C1034.03 270.67 1034.35 273.205 1034.94 275.614C1035.84 279.227 1038.92 281.162 1041.91 281.162H1046.96L1058.75 294.268C1061.22 297.02 1065.46 295.071 1065.46 291.179V244.934Z" fill="#EBFAFF"/>
<path d="M1078.77 247.977C1079.54 247.124 1080.78 247.124 1081.55 247.977C1091.52 259.067 1091.52 277.046 1081.55 288.135C1080.78 288.988 1079.54 288.988 1078.77 288.135C1078 287.282 1078 285.899 1078.77 285.046C1087.21 275.663 1087.21 260.45 1078.77 251.066C1078 250.213 1078 248.83 1078.77 247.977Z" fill="#EBFAFF"/>
<path d="M1071.83 255.7C1072.59 254.847 1073.84 254.847 1074.6 255.7C1080.74 262.524 1080.74 273.589 1074.6 280.413C1073.84 281.266 1072.59 281.266 1071.83 280.413C1071.06 279.56 1071.06 278.177 1071.83 277.324C1076.43 272.206 1076.43 263.907 1071.83 258.789C1071.06 257.936 1071.06 256.553 1071.83 255.7Z" fill="#EBFAFF"/>
<path d="M1165.93 250.869C1165.93 246.123 1169.78 242.275 1174.53 242.275C1179.27 242.275 1183.12 246.123 1183.12 250.869V269.775C1183.12 274.521 1179.27 278.369 1174.53 278.369C1169.78 278.369 1165.93 274.521 1165.93 269.775V250.869Z" fill="#EBFAFF"/>
<path d="M1160.78 264.619C1161.73 264.619 1162.5 265.388 1162.5 266.338V269.775C1162.5 276.42 1167.88 281.806 1174.53 281.806C1181.17 281.806 1186.56 276.42 1186.56 269.775V266.338C1186.56 265.388 1187.33 264.619 1188.28 264.619C1189.23 264.619 1190 265.388 1190 266.338V269.775C1190 277.737 1183.98 284.295 1176.25 285.149V290.4H1183.12C1184.07 290.4 1184.84 291.17 1184.84 292.119C1184.84 293.068 1184.07 293.838 1183.12 293.838H1165.93C1164.98 293.838 1164.22 293.068 1164.22 292.119C1164.22 291.17 1164.98 290.4 1165.93 290.4H1172.81V285.149C1165.07 284.295 1159.06 277.737 1159.06 269.775V266.338C1159.06 265.388 1159.83 264.619 1160.78 264.619Z" fill="#EBFAFF"/>
<g clip-path="url(#clip0_1357_8910)">
<path d="M1314.69 247.796C1314.25 247.349 1313.53 247.338 1313.08 247.785L1274.42 285.887L1262.05 272.835C1261.65 272.354 1260.93 272.285 1260.44 272.686C1259.96 273.087 1259.89 273.808 1260.29 274.3C1260.32 274.335 1260.35 274.369 1260.38 274.403L1273.55 288.302C1273.75 288.531 1274.05 288.657 1274.36 288.657H1274.38C1274.68 288.657 1274.97 288.543 1275.18 288.325L1314.68 249.399C1315.14 248.964 1315.14 248.243 1314.69 247.796Z" fill="#EBFAFF"/>
</g>
<path fill-rule="evenodd" clip-rule="evenodd" d="M1418.75 244.34C1419.18 244.665 1419.43 245.173 1419.43 245.713V254.268C1419.43 254.294 1419.43 254.32 1419.43 254.346V277.917C1419.43 280.987 1417.4 283.684 1414.45 284.528L1411.42 285.392C1407.69 286.46 1403.97 283.653 1403.97 279.767C1403.97 277.155 1405.7 274.859 1408.21 274.141L1413.5 272.629C1414.98 272.207 1416 270.858 1416 269.323V256.585L1395.37 262.478V284.792C1395.37 287.862 1393.34 290.559 1390.39 291.403L1387.36 292.267C1383.62 293.335 1379.9 290.528 1379.9 286.642C1379.9 284.03 1381.63 281.734 1384.15 281.016L1389.44 279.504C1390.92 279.082 1391.93 277.733 1391.93 276.198V261.219C1391.93 261.193 1391.93 261.168 1391.93 261.142V252.588C1391.93 251.82 1392.44 251.146 1393.18 250.935L1417.24 244.06C1417.76 243.912 1418.32 244.016 1418.75 244.34Z" fill="#EBFAFF"/>
<path d="M24.9707 309.385C24.364 309.208 23.7095 309.379 23.2664 309.829C22.8232 310.28 22.6627 310.937 22.8485 311.541L28.4225 329.656H47.9377C48.8869 329.656 49.6565 330.426 49.6565 331.375C49.6565 332.324 48.8869 333.094 47.9377 333.094H28.4225L22.8487 351.208C22.6629 351.812 22.8234 352.469 23.2666 352.92C23.7098 353.37 24.3643 353.541 24.9709 353.364C40.3219 348.905 54.5776 341.874 67.241 332.77C67.6902 332.447 67.9565 331.927 67.9565 331.374C67.9565 330.821 67.6902 330.302 67.241 329.979C54.5775 320.875 40.3217 313.844 24.9707 309.385Z" fill="#EBFAFF"/>
<path d="M143.266 320.716C143.839 319.96 144.916 319.799 145.672 320.372C146.428 320.945 146.588 322.023 146.015 322.779C143.541 326.079 142.235 329.929 142.235 333.917C142.235 344.207 150.598 352.572 160.887 352.572C171.176 352.572 179.54 344.207 179.54 333.917C179.54 323.627 171.176 315.285 160.887 315.285C159.558 315.285 158.206 315.445 156.74 315.789C156.671 315.812 156.602 315.789 156.51 315.789C156.465 315.789 156.396 315.835 156.35 315.835C156.281 315.835 156.235 315.812 156.167 315.812C156.075 315.812 156.006 315.789 155.938 315.766C155.823 315.743 155.708 315.697 155.594 315.628C155.525 315.583 155.433 315.56 155.365 315.514C155.342 315.491 155.296 315.491 155.273 315.468C155.204 315.422 155.181 315.353 155.136 315.308C155.044 315.216 154.975 315.147 154.906 315.033C154.838 314.941 154.815 314.826 154.769 314.735C154.746 314.666 154.7 314.597 154.677 314.528C154.677 314.483 154.677 314.46 154.677 314.414C154.654 314.299 154.654 314.185 154.677 314.07C154.677 313.955 154.677 313.864 154.7 313.749C154.723 313.657 154.769 313.566 154.815 313.451C154.861 313.337 154.906 313.222 154.975 313.13C154.998 313.085 154.998 313.062 155.021 313.039L159.558 307.378C160.154 306.645 161.231 306.53 161.964 307.103C162.697 307.699 162.812 308.776 162.239 309.509L160.36 311.847C160.543 311.847 160.727 311.824 160.91 311.824C173.078 311.824 183 321.725 183 333.917C183 346.109 173.101 356.01 160.91 356.01C148.719 356.01 138.82 346.109 138.82 333.917C138.797 329.173 140.356 324.612 143.266 320.716Z" fill="#EBFAFF"/>
<path d="M155.153 341.635C154.213 341.635 153.434 340.908 153.434 340.033V332.791L152.999 333.261C152.357 333.923 151.28 333.966 150.57 333.389C149.859 332.791 149.813 331.787 150.432 331.124L153.87 327.557C154.351 327.066 155.107 326.895 155.772 327.13C156.436 327.365 156.872 327.963 156.872 328.625V340.054C156.872 340.93 156.115 341.635 155.153 341.635Z" fill="#EBFAFF"/>
<path d="M165.37 341.633C161.887 341.633 159.068 339.006 159.068 335.759V332.875C159.068 329.628 161.887 327 165.37 327C168.854 327 171.673 329.628 171.673 332.875V335.759C171.673 339.006 168.854 341.633 165.37 341.633ZM165.37 330.226C163.789 330.226 162.506 331.422 162.506 332.896V335.78C162.506 337.254 163.789 338.45 165.37 338.45C166.952 338.45 168.235 337.254 168.235 335.78V332.896C168.235 331.422 166.952 330.226 165.37 330.226Z" fill="#EBFAFF"/>
<path d="M288.126 320.715C287.553 319.959 286.476 319.798 285.72 320.371C284.964 320.944 284.803 322.021 285.376 322.777C287.851 326.077 289.158 329.927 289.158 333.915C289.158 344.205 280.793 352.569 270.503 352.569C260.214 352.569 251.849 344.205 251.849 333.915C251.849 323.625 260.214 315.284 270.503 315.284C271.833 315.284 273.185 315.444 274.651 315.788C274.72 315.811 274.789 315.788 274.88 315.788C274.926 315.788 274.995 315.834 275.041 315.834C275.11 315.834 275.155 315.811 275.224 315.811C275.316 315.811 275.385 315.788 275.453 315.765C275.568 315.742 275.683 315.696 275.797 315.627C275.866 315.582 275.958 315.559 276.026 315.513C276.049 315.49 276.095 315.49 276.118 315.467C276.187 315.421 276.21 315.352 276.255 315.307C276.347 315.215 276.416 315.146 276.485 315.032C276.553 314.94 276.576 314.825 276.622 314.734C276.645 314.665 276.691 314.596 276.714 314.527C276.714 314.482 276.714 314.459 276.714 314.413C276.737 314.298 276.737 314.184 276.714 314.069C276.714 313.955 276.714 313.863 276.691 313.748C276.668 313.657 276.622 313.565 276.576 313.45C276.53 313.336 276.485 313.221 276.416 313.13C276.393 313.084 276.393 313.061 276.37 313.038L271.833 307.377C271.237 306.644 270.16 306.53 269.426 307.102C268.693 307.698 268.578 308.775 269.151 309.509L271.03 311.846C270.847 311.846 270.664 311.823 270.48 311.823C258.312 311.823 248.389 321.723 248.389 333.915C248.389 346.107 258.289 356.007 270.48 356.007C282.672 356.007 292.572 346.107 292.572 333.915C292.595 329.171 291.037 324.611 288.126 320.715Z" fill="#EBFAFF"/>
<path d="M264.866 342.079C263.926 342.079 263.147 341.3 263.147 340.36V332.591L262.712 333.095C262.07 333.806 260.993 333.852 260.282 333.233C259.572 332.591 259.526 331.514 260.145 330.804L263.582 326.977C264.064 326.45 264.82 326.266 265.485 326.518C266.149 326.77 266.585 327.412 266.585 328.122V340.383C266.585 341.322 265.828 342.079 264.866 342.079Z" fill="#EBFAFF"/>
<path d="M275.083 342.078C271.6 342.078 268.781 339.259 268.781 335.775V332.682C268.781 329.198 271.6 326.38 275.083 326.38C278.567 326.38 281.385 329.198 281.385 332.682V335.775C281.385 339.259 278.567 342.078 275.083 342.078ZM275.083 329.84C273.502 329.84 272.219 331.123 272.219 332.705V335.798C272.219 337.38 273.502 338.663 275.083 338.663C276.665 338.663 277.948 337.38 277.948 335.798V332.705C277.948 331.123 276.665 329.84 275.083 329.84Z" fill="#EBFAFF"/>
<path fill-rule="evenodd" clip-rule="evenodd" d="M361.156 331.375C361.156 319.035 371.16 309.031 383.5 309.031C395.84 309.031 405.844 319.035 405.844 331.375C405.844 343.715 395.84 353.719 383.5 353.719C371.16 353.719 361.156 343.715 361.156 331.375ZM387.23 322.399C385.193 320.617 381.808 320.617 379.771 322.399C379.057 323.024 377.971 322.952 377.346 322.237C376.721 321.523 376.793 320.437 377.507 319.812C380.84 316.896 386.161 316.896 389.494 319.812C392.961 322.846 392.961 327.872 389.494 330.906C388.906 331.421 388.258 331.843 387.575 332.173C386.025 332.923 385.219 333.946 385.219 334.812V336.531C385.219 337.48 384.45 338.25 383.501 338.25C382.551 338.25 381.782 337.48 381.782 336.531V334.812C381.782 331.881 384.209 329.983 386.077 329.079C386.496 328.876 386.884 328.622 387.23 328.319C389.132 326.655 389.132 324.063 387.23 322.399ZM383.5 345.125C384.449 345.125 385.219 344.355 385.219 343.406C385.219 342.457 384.449 341.687 383.5 341.687C382.551 341.687 381.781 342.457 381.781 343.406C381.781 344.355 382.551 345.125 383.5 345.125Z" fill="#EBFAFF"/>
<path d="M481.756 314.548C482.621 314.313 483.53 314.187 484.468 314.187H508.531C509.47 314.187 510.379 314.313 511.243 314.548C510.114 312.296 507.784 310.75 505.093 310.75H487.906C485.215 310.75 482.885 312.296 481.756 314.548Z" fill="#EBFAFF"/>
<path d="M474.156 331.375C474.156 327.578 477.234 324.5 481.031 324.5H511.969C515.766 324.5 518.844 327.578 518.844 331.375V345.125C518.844 348.922 515.766 352 511.969 352H481.031C477.234 352 474.156 348.922 474.156 345.125V331.375Z" fill="#EBFAFF"/>
<path d="M481.031 321.062C480.092 321.062 479.183 321.188 478.319 321.423C479.448 319.171 481.778 317.625 484.468 317.625H508.531C511.222 317.625 513.551 319.171 514.681 321.423C513.816 321.188 512.907 321.062 511.968 321.062H481.031Z" fill="#EBFAFF"/>
<path d="M589.066 341.457L589.009 346.613C588.977 349.461 591.26 351.795 594.107 351.826L625.043 352.171C627.89 352.202 630.224 349.92 630.256 347.072L630.313 341.916M620.116 331.489L609.69 341.687M609.69 341.687L599.493 331.26M609.69 341.687L610.034 310.751" stroke="#EBFAFF" stroke-width="1.5" stroke-linecap="round" stroke-linejoin="round"/>
<path fill-rule="evenodd" clip-rule="evenodd" d="M732.917 330.159C733.589 330.831 733.589 331.919 732.917 332.59L715.73 349.778C715.059 350.449 713.971 350.449 713.299 349.778C712.628 349.106 712.628 348.018 713.299 347.347L729.271 331.375L713.299 315.403C712.628 314.731 712.628 313.643 713.299 312.972C713.971 312.301 715.059 312.301 715.73 312.972L732.917 330.159Z" fill="#EBFAFF"/>
<path fill-rule="evenodd" clip-rule="evenodd" d="M844.702 309.031L856.733 309.031C857.189 309.031 857.626 309.212 857.949 309.534C858.271 309.857 858.452 310.294 858.452 310.75V322.781C858.452 323.73 857.683 324.5 856.733 324.5C855.784 324.5 855.015 323.73 855.015 322.781V314.899L827.011 342.903C826.34 343.574 825.252 343.574 824.581 342.903C823.909 342.231 823.909 341.143 824.581 340.472L852.584 312.469L844.702 312.469C843.753 312.469 842.983 311.699 842.983 310.75C842.983 309.801 843.753 309.031 844.702 309.031ZM820.64 319.344C818.741 319.344 817.202 320.883 817.202 322.781V346.844C817.202 348.742 818.741 350.281 820.64 350.281H844.702C846.601 350.281 848.14 348.742 848.14 346.844V327.937C848.14 326.988 848.909 326.219 849.858 326.219C850.808 326.219 851.577 326.988 851.577 327.937V346.844C851.577 350.64 848.499 353.719 844.702 353.719H820.64C816.843 353.719 813.765 350.64 813.765 346.844V322.781C813.765 318.984 816.843 315.906 820.64 315.906H839.546C840.495 315.906 841.265 316.676 841.265 317.625C841.265 318.574 840.495 319.344 839.546 319.344H820.64Z" fill="#EBFAFF"/>
<path fill-rule="evenodd" clip-rule="evenodd" d="M955.983 312.469C955.983 311.519 956.753 310.75 957.702 310.75L968.015 310.75C968.964 310.75 969.733 311.519 969.733 312.469V322.781C969.733 323.73 968.964 324.5 968.015 324.5C967.065 324.5 966.296 323.73 966.296 322.781V316.618L957.199 325.715C956.528 326.386 955.439 326.386 954.768 325.715C954.097 325.044 954.097 323.956 954.768 323.284L963.865 314.187H957.702C956.753 314.187 955.983 313.418 955.983 312.469ZM928.483 312.469C928.483 311.519 929.253 310.75 930.202 310.75H940.515C941.464 310.75 942.233 311.519 942.233 312.469C942.233 313.418 941.464 314.187 940.515 314.187H934.352L943.449 323.284C944.12 323.956 944.12 325.044 943.449 325.715C942.778 326.386 941.689 326.386 941.018 325.715L931.921 316.618V322.781C931.921 323.73 931.151 324.5 930.202 324.5C929.253 324.5 928.483 323.73 928.483 322.781V312.469ZM954.768 339.465C954.097 338.794 954.097 337.706 954.768 337.034C955.439 336.363 956.528 336.363 957.199 337.034L966.296 346.132V339.969C966.296 339.019 967.065 338.25 968.015 338.25C968.964 338.25 969.733 339.019 969.733 339.969V350.281C969.733 351.23 968.964 352 968.015 352H957.702C956.753 352 955.983 351.23 955.983 350.281C955.983 349.332 956.753 348.562 957.702 348.562H963.865L954.768 339.465ZM943.449 337.034C944.12 337.706 944.12 338.794 943.449 339.465L934.352 348.562H940.515C941.464 348.562 942.233 349.332 942.233 350.281C942.233 351.23 941.464 352 940.515 352H930.202C929.253 352 928.483 351.23 928.483 350.281V339.969C928.483 339.019 929.253 338.25 930.202 338.25C931.151 338.25 931.921 339.019 931.921 339.969V346.132L941.018 337.034C941.689 336.363 942.778 336.363 943.449 337.034Z" fill="#EBFAFF"/>
<path fill-rule="evenodd" clip-rule="evenodd" d="M1041.99 311.253C1042.66 310.582 1043.75 310.582 1044.42 311.253L1053.51 320.35L1053.51 314.187C1053.51 313.238 1054.28 312.469 1055.23 312.469C1056.18 312.469 1056.95 313.238 1056.95 314.187L1056.95 324.5C1056.95 325.449 1056.18 326.219 1055.23 326.219H1044.92C1043.97 326.219 1043.2 325.449 1043.2 324.5C1043.2 323.551 1043.97 322.781 1044.92 322.781L1051.08 322.781L1041.99 313.684C1041.32 313.013 1041.32 311.924 1041.99 311.253ZM1082.23 311.253C1082.9 311.924 1082.9 313.013 1082.23 313.684L1073.13 322.781H1079.3C1080.25 322.781 1081.01 323.551 1081.01 324.5C1081.01 325.449 1080.25 326.219 1079.3 326.219H1068.98C1068.03 326.219 1067.26 325.449 1067.26 324.5V314.187C1067.26 313.238 1068.03 312.469 1068.98 312.469C1069.93 312.469 1070.7 313.238 1070.7 314.187V320.35L1079.8 311.253C1080.47 310.582 1081.56 310.582 1082.23 311.253ZM1043.2 338.25C1043.2 337.301 1043.97 336.531 1044.92 336.531L1055.23 336.531C1056.18 336.531 1056.95 337.301 1056.95 338.25V348.562C1056.95 349.511 1056.18 350.281 1055.23 350.281C1054.28 350.281 1053.51 349.511 1053.51 348.562L1053.51 342.399L1044.42 351.496C1043.75 352.168 1042.66 352.168 1041.99 351.496C1041.32 350.825 1041.32 349.737 1041.99 349.066L1051.08 339.969H1044.92C1043.97 339.969 1043.2 339.199 1043.2 338.25ZM1067.26 338.25C1067.26 337.301 1068.03 336.531 1068.98 336.531H1079.3C1080.25 336.531 1081.01 337.301 1081.01 338.25C1081.01 339.199 1080.25 339.969 1079.3 339.969H1073.13L1082.23 349.066C1082.9 349.737 1082.9 350.825 1082.23 351.496C1081.56 352.168 1080.47 352.168 1079.8 351.496L1070.7 342.399V348.562C1070.7 349.511 1069.93 350.281 1068.98 350.281C1068.03 350.281 1067.26 349.511 1067.26 348.562L1067.26 338.25Z" fill="#EBFAFF"/>
<path fill-rule="evenodd" clip-rule="evenodd" d="M1160.14 316.409C1160.81 315.738 1161.9 315.738 1162.57 316.409L1175.11 328.944L1187.64 316.409C1188.31 315.738 1189.4 315.738 1190.07 316.409C1190.74 317.081 1190.74 318.169 1190.07 318.84L1177.54 331.375L1190.07 343.909C1190.74 344.581 1190.74 345.669 1190.07 346.34C1189.4 347.011 1188.31 347.011 1187.64 346.34L1175.11 333.805L1162.57 346.34C1161.9 347.011 1160.81 347.011 1160.14 346.34C1159.47 345.669 1159.47 344.581 1160.14 343.909L1172.68 331.375L1160.14 318.84C1159.47 318.169 1159.47 317.081 1160.14 316.409Z" fill="#EBFAFF"/>
<path fill-rule="evenodd" clip-rule="evenodd" d="M1266.62 319.344C1266.62 317.92 1267.78 316.765 1269.2 316.765C1270.63 316.765 1271.78 317.92 1271.78 319.344C1271.78 320.767 1270.63 321.922 1269.2 321.922C1267.78 321.922 1266.62 320.767 1266.62 319.344ZM1277.8 319.344C1277.8 318.394 1278.57 317.625 1279.51 317.625H1307.01C1307.96 317.625 1308.73 318.394 1308.73 319.344C1308.73 320.293 1307.96 321.062 1307.01 321.062H1279.51C1278.57 321.062 1277.8 320.293 1277.8 319.344ZM1266.62 331.375C1266.62 329.951 1267.78 328.797 1269.2 328.797C1270.63 328.797 1271.78 329.951 1271.78 331.375C1271.78 332.799 1270.63 333.953 1269.2 333.953C1267.78 333.953 1266.62 332.799 1266.62 331.375ZM1277.8 331.375C1277.8 330.426 1278.57 329.656 1279.51 329.656H1307.01C1307.96 329.656 1308.73 330.426 1308.73 331.375C1308.73 332.324 1307.96 333.094 1307.01 333.094H1279.51C1278.57 333.094 1277.8 332.324 1277.8 331.375ZM1266.62 343.406C1266.62 341.982 1267.78 340.828 1269.2 340.828C1270.63 340.828 1271.78 341.982 1271.78 343.406C1271.78 344.83 1270.63 345.984 1269.2 345.984C1267.78 345.984 1266.62 344.83 1266.62 343.406ZM1277.8 343.406C1277.8 342.457 1278.57 341.687 1279.51 341.687H1307.01C1307.96 341.687 1308.73 342.457 1308.73 343.406C1308.73 344.355 1307.96 345.125 1307.01 345.125H1279.51C1278.57 345.125 1277.8 344.355 1277.8 343.406Z" fill="#EBFAFF"/>
<path d="M1416.58 333.094L1420.01 333.094C1420.96 333.093 1421.73 332.324 1421.73 331.375C1421.73 330.426 1420.96 329.656 1420.01 329.656L1416.58 329.656C1415.63 329.656 1414.86 330.426 1414.86 331.375C1414.86 332.324 1415.63 333.094 1416.58 333.094Z" fill="#EBFAFF"/>
<path d="M1401.11 317.625C1401.11 316.676 1401.88 315.906 1402.83 315.906L1420.01 315.906C1420.96 315.906 1421.73 316.676 1421.73 317.625C1421.73 318.574 1420.96 319.344 1420.01 319.344L1402.83 319.344C1401.88 319.344 1401.11 318.574 1401.11 317.625Z" fill="#EBFAFF"/>
<path d="M1401.11 345.125C1401.11 344.176 1401.88 343.406 1402.83 343.406L1420.01 343.406C1420.96 343.406 1421.73 344.176 1421.73 345.125C1421.73 346.074 1420.96 346.844 1420.01 346.844L1402.83 346.844C1401.88 346.844 1401.11 346.074 1401.11 345.125Z" fill="#EBFAFF"/>
<path d="M1382.2 319.344L1385.64 319.344C1386.59 319.343 1387.36 318.574 1387.36 317.625C1387.36 316.675 1386.59 315.906 1385.64 315.906L1382.2 315.906C1381.25 315.906 1380.48 316.676 1380.48 317.625C1380.48 318.574 1381.25 319.344 1382.2 319.344Z" fill="#EBFAFF"/>
<path d="M1385.64 346.844L1382.2 346.844C1381.25 346.844 1380.48 346.074 1380.48 345.125C1380.48 344.176 1381.25 343.406 1382.2 343.406L1385.64 343.406C1386.59 343.406 1387.36 344.176 1387.36 345.125C1387.36 346.074 1386.59 346.843 1385.64 346.844Z" fill="#EBFAFF"/>
<path d="M1380.48 331.375C1380.48 330.426 1381.25 329.656 1382.2 329.656H1399.39C1400.34 329.656 1401.11 330.426 1401.11 331.375C1401.11 332.324 1400.34 333.094 1399.39 333.094H1382.2C1381.25 333.094 1380.48 332.324 1380.48 331.375Z" fill="#EBFAFF"/>
<path d="M1394.23 312.469C1391.39 312.469 1389.08 314.777 1389.08 317.625C1389.08 320.472 1391.39 322.781 1394.23 322.781C1397.08 322.781 1399.39 320.472 1399.39 317.625C1399.39 314.777 1397.08 312.469 1394.23 312.469Z" fill="#EBFAFF"/>
<path d="M1402.83 331.375C1402.83 328.527 1405.14 326.219 1407.98 326.219C1410.83 326.219 1413.14 328.527 1413.14 331.375C1413.14 334.222 1410.83 336.531 1407.98 336.531C1405.14 336.531 1402.83 334.222 1402.83 331.375Z" fill="#EBFAFF"/>
<path d="M1394.23 339.969C1391.39 339.969 1389.08 342.277 1389.08 345.125C1389.08 347.972 1391.39 350.281 1394.23 350.281C1397.08 350.281 1399.39 347.972 1399.39 345.125C1399.39 342.277 1397.08 339.969 1394.23 339.969Z" fill="#EBFAFF"/>
<path fill-rule="evenodd" clip-rule="evenodd" d="M45.7153 404.488C45.0441 405.159 43.9559 405.159 43.2847 404.488L26.0972 387.301C25.4259 386.629 25.4259 385.541 26.0972 384.87C26.7684 384.199 27.8566 384.199 28.5278 384.87L44.5 400.842L60.4722 384.87C61.1434 384.199 62.2316 384.199 62.9028 384.87C63.5741 385.541 63.5741 386.629 62.9028 387.301L45.7153 404.488Z" fill="#EBFAFF"/>
<defs>
<clipPath id="clip0_1357_8910">
<rect width="55" height="55" fill="white" transform="translate(1260.03 240.556)"/>
</clipPath>
</defs>
</svg>
